<svg width="275px" id="main_logo" height="152px" viewBox="-30 0 275 152" xmlns="http://www.w3.org/2000/svg">
  <title>
    PersonalLogo
  </title>
  <g fill="none" fill-rule="evenodd">
    <path class="name" d="M72.187 90.008v8.28H66.99V75.906h7.287c1.62 0 3 .167 4.143.5 1.142.333 2.075.796 2.797 1.39.723.594 1.248 1.295 1.576 2.104.328.81.492 1.69.492 2.643 0 .727-.097 1.413-.292 2.058-.195.646-.484 1.243-.87 1.79-.383.548-.854 1.037-1.413 1.468-.558.43-1.2.783-1.93 1.06.35.174.675.39.977.645.302.256.566.568.792.937l4.764 7.788H80.61c-.87 0-1.496-.328-1.875-.983l-3.72-6.498c-.164-.287-.356-.492-.577-.615-.22-.122-.53-.184-.93-.184h-1.32zm0-3.58h2.09c.707 0 1.31-.09 1.806-.268.497-.18.905-.427 1.222-.745.318-.317.55-.69.692-1.114.144-.424.215-.882.215-1.373 0-.984-.32-1.752-.96-2.305-.64-.553-1.632-.83-2.975-.83h-2.09v6.637zm20.936 11.86h-5.227V75.906h5.227v22.382zm9.346-4.148h8.3v4.148H97.272V75.906h5.196V94.14zm25.178-18.234V79.9h-9.193v5.223h7.04v3.84h-7.04v5.33h9.193v3.995h-14.42V75.906h14.42zm14.11 13.872v8.51h-5.195v-8.51l-8.116-13.872h4.58c.452 0 .81.105 1.077.315.266.21.48.48.645.808l3.166 6.513.707 1.445c.215.44.405.876.57 1.306.152-.44.337-.88.552-1.32.215-.44.446-.917.692-1.43l3.136-6.512c.06-.133.146-.266.253-.4.108-.133.23-.253.37-.36.137-.108.296-.195.476-.262.18-.066.376-.1.59-.1h4.613l-8.116 13.872zm-97.994 37.896v7.48H38.57v-22.38h7.9c1.578 0 2.933.186 4.066.56 1.132.374 2.064.89 2.797 1.544.733.655 1.273 1.43 1.622 2.32.348.89.523 1.853.523 2.888 0 1.116-.18 2.14-.538 3.072-.36.932-.907 1.73-1.645 2.396-.738.666-1.673 1.186-2.806 1.56-1.133.373-2.473.56-4.02.56h-2.706zm0-3.917h2.706c1.352 0 2.326-.323 2.92-.968.595-.646.892-1.547.892-2.704 0-.512-.077-.978-.23-1.398-.154-.42-.388-.78-.7-1.083-.313-.302-.707-.535-1.184-.7-.476-.163-1.042-.245-1.698-.245h-2.706v7.097zm32.65 11.398h-4.028c-.45 0-.822-.105-1.114-.315-.292-.21-.495-.48-.607-.806l-1.322-3.902h-8.516l-1.322 3.902c-.103.286-.302.545-.6.775-.297.23-.66.345-1.09.345h-4.06l8.67-22.38h5.32l8.67 22.38zM62.026 126.6h6.118l-2.06-6.13-.47-1.375c-.178-.528-.355-1.1-.53-1.713-.163.625-.332 1.203-.506 1.736-.175.532-.34.993-.492 1.382l-2.06 6.1zm21.397.275v8.28h-5.195v-22.38h7.286c1.62 0 3 .165 4.142.498 1.143.333 2.076.796 2.798 1.39.723.594 1.248 1.295 1.576 2.105.328.81.492 1.69.492 2.642 0 .727-.098 1.413-.292 2.058-.195.645-.485 1.242-.87 1.79-.383.548-.855 1.037-1.413 1.467-.56.43-1.202.783-1.93 1.06.35.174.674.39.977.645.302.256.566.568.79.937l4.767 7.788h-4.703c-.87 0-1.496-.328-1.875-.983l-3.72-6.498c-.164-.287-.356-.492-.577-.614-.22-.123-.53-.185-.93-.185h-1.322zm0-3.58h2.09c.708 0 1.31-.09 1.807-.268.497-.18.904-.427 1.222-.745.318-.317.548-.688.692-1.113.143-.426.215-.885.215-1.376 0-.983-.32-1.75-.962-2.304-.64-.554-1.632-.83-2.974-.83h-2.09v6.636zm27.73-5.974c-.153.246-.314.43-.483.554-.17.122-.387.184-.654.184-.235 0-.49-.074-.76-.223l-.923-.5c-.343-.183-.735-.35-1.176-.498-.44-.15-.943-.223-1.506-.223-.973 0-1.698.207-2.174.622-.477.415-.715.975-.715 1.682 0 .45.144.824.43 1.12.288.298.665.554 1.13.77.467.215 1 .412 1.6.59.6.18 1.21.38 1.837.6.625.22 1.237.48 1.837.776.6.297 1.132.676 1.598 1.137.466.46.843 1.022 1.13 1.683.287.66.43 1.456.43 2.388 0 1.036-.18 2.003-.538 2.905-.358.9-.878 1.687-1.56 2.358-.68.67-1.522 1.198-2.52 1.582-1 .384-2.135.576-3.406.576-.696 0-1.406-.07-2.13-.214-.72-.144-1.42-.346-2.097-.607-.675-.262-1.31-.572-1.905-.93-.594-.36-1.112-.758-1.552-1.2l1.537-2.426c.112-.184.27-.333.476-.445.205-.114.426-.17.66-.17.31 0 .62.097.93.292.314.194.667.41 1.062.645.394.235.848.45 1.36.645.513.195 1.117.292 1.814.292.943 0 1.676-.207 2.198-.622.523-.415.784-1.073.784-1.974 0-.522-.143-.947-.43-1.275-.287-.328-.664-.6-1.13-.814-.466-.216-.997-.406-1.59-.57-.595-.163-1.205-.345-1.83-.545-.625-.2-1.235-.445-1.83-.737-.594-.292-1.124-.676-1.59-1.152-.467-.477-.843-1.07-1.13-1.782-.287-.712-.43-1.59-.43-2.635 0-.84.168-1.66.507-2.46.34-.797.836-1.51 1.492-2.134.656-.624 1.46-1.124 2.413-1.498.953-.373 2.044-.56 3.274-.56.686 0 1.354.054 2.005.16.65.11 1.268.267 1.852.477.585.21 1.13.46 1.638.753.507.292.96.622 1.36.99l-1.29 2.413zm26.286 6.637c0 1.618-.28 3.123-.838 4.516-.56 1.393-1.345 2.604-2.36 3.633-1.015 1.03-2.237 1.835-3.666 2.42-1.43.583-3.016.875-4.758.875s-3.33-.29-4.765-.875c-1.435-.584-2.662-1.39-3.68-2.42-1.02-1.028-1.81-2.24-2.37-3.632-.557-1.393-.836-2.898-.836-4.516 0-1.618.28-3.124.837-4.517.56-1.392 1.348-2.6 2.368-3.625 1.02-1.024 2.246-1.828 3.68-2.412 1.436-.583 3.024-.875 4.766-.875s3.328.294 4.758.883c1.43.59 2.65 1.396 3.666 2.42 1.015 1.025 1.8 2.233 2.36 3.626.558 1.393.837 2.893.837 4.5zm-5.32 0c0-1.106-.143-2.102-.43-2.988-.287-.887-.7-1.637-1.237-2.252-.538-.614-1.197-1.085-1.975-1.413-.78-.328-1.666-.49-2.66-.49-1.004 0-1.898.162-2.682.49-.784.328-1.445.8-1.983 1.413-.538.615-.95 1.365-1.237 2.25-.287.887-.43 1.883-.43 2.99 0 1.115.143 2.116.43 3.002.287.886.7 1.636 1.237 2.25.538.615 1.2 1.083 1.983 1.406.784.322 1.678.484 2.682.484.994 0 1.88-.162 2.66-.484.778-.323 1.437-.79 1.975-1.406.538-.614.95-1.364 1.237-2.25.287-.886.43-1.887.43-3.003zm10.546-11.183c.225 0 .415.01.568.03.154.02.292.06.415.116.122.056.24.135.353.238.113.102.24.24.384.414l10.637 13.44c-.04-.43-.07-.846-.092-1.25-.02-.405-.03-.786-.03-1.145v-11.843h4.58v22.38h-2.705c-.4 0-.738-.06-1.015-.183-.276-.122-.543-.348-.8-.675l-10.56-13.334c.03.39.057.772.078 1.146.02.373.03.724.03 1.052v11.997h-4.58v-22.38h2.736zm32.987 4.547c-.153.246-.315.43-.484.554-.17.122-.388.184-.654.184-.236 0-.49-.074-.76-.223l-.923-.5c-.344-.183-.736-.35-1.176-.498-.44-.15-.943-.223-1.507-.223-.973 0-1.698.207-2.175.622-.476.415-.715.975-.715 1.682 0 .45.144.824.43 1.12.288.298.664.554 1.13.77.467.215 1 .412 1.6.59.6.18 1.21.38 1.836.6.625.22 1.238.48 1.837.776.6.297 1.132.676 1.6 1.137.465.46.842 1.022 1.13 1.683.285.66.43 1.456.43 2.388 0 1.036-.18 2.003-.54 2.905-.358.9-.878 1.687-1.56 2.358-.68.67-1.52 1.198-2.52 1.582-1 .384-2.134.576-3.405.576-.697 0-1.407-.07-2.13-.214-.722-.144-1.42-.346-2.097-.607-.676-.262-1.31-.572-1.905-.93-.595-.36-1.112-.758-1.553-1.2l1.537-2.426c.112-.184.27-.333.476-.445.205-.114.425-.17.66-.17.308 0 .618.097.93.292.313.194.667.41 1.06.645.396.235.85.45 1.362.645.512.195 1.117.292 1.814.292.942 0 1.675-.207 2.198-.622.522-.415.784-1.073.784-1.974 0-.522-.144-.947-.43-1.275-.288-.328-.664-.6-1.13-.814-.467-.216-.997-.406-1.59-.57-.596-.163-1.206-.345-1.83-.545-.626-.2-1.236-.445-1.83-.737-.594-.292-1.125-.676-1.59-1.152-.467-.477-.844-1.07-1.13-1.782-.288-.712-.43-1.59-.43-2.635 0-.84.168-1.66.506-2.46.338-.797.835-1.51 1.49-2.134.657-.624 1.46-1.124 2.415-1.498.953-.373 2.044-.56 3.274-.56.685 0 1.354.054 2.005.16.65.11 1.268.267 1.852.477.584.21 1.13.46 1.637.753.507.292.96.622 1.36.99l-1.29 2.413z" fill="#44484C"/>
    <path class="yellow_tri" fill="#FFC963" d="M82.06 145.864v5.334h132.806L137.26 43.168l-4.33 3.11 71.536 99.586"/>
    <path class="black_tri" fill="#44484C" d="M10.472 145.864l95.933-136.34 23.548 32.747 4.33-3.113L106.358.323.197 151.198h76.77v-5.334"/>
  </g>
</svg>
